Coordinates
version=1
nRows=16
nColumns=42
inDegrees=yes

Units are S.I. units (second, meters, Newtons, ...)
If the header above contains a line with 'inDegrees', this indicates whether rotational values are in degrees (yes) or radians (no).

endheader
time	pelvis_tilt	pelvis_list	pelvis_rotation	pelvis_tx	pelvis_ty	pelvis_tz	hip_flexion_r	hip_adduction_r	hip_rotation_r	knee_angle_r	knee_adduction_r	knee_angle_r_beta	ankle_angle_r	subtalar_angle_r	mtp_angle_r	hip_flexion_l	hip_adduction_l	hip_rotation_l	knee_angle_l	knee_adduction_l	knee_angle_l_beta	ankle_angle_l	subtalar_angle_l	mtp_angle_l	lumbar_extension	lumbar_bending	lumbar_rotation	arm_flex_r	arm_add_r	arm_rot_r	elbow_flex_r	pro_sup_r	wrist_flex_r	wrist_dev_r	arm_flex_l	arm_add_l	arm_rot_l	elbow_flex_l	pro_sup_l	wrist_flex_l	wrist_dev_l
      3.60000000	      0.94083458	     -5.42915776	     -9.94776037	     -0.71751712	      0.93731607	      0.18648644	     19.87345307	     -5.47536120	    -11.64649761	     38.34732604	      2.90458835	      0.66928710	      6.33745147	      5.39210732	     -7.52011347	      8.82047991	     -6.31213467	    -25.33272693	     31.75405778	     -2.02135055	      0.55421286	     16.53620945	     -7.33524021	     -7.52011347	    -20.09460322	      3.30587961	     -1.98048401	     11.61317787	    -17.64773909	     17.65975078	     52.08473743	     90.00000001	      0.00000000	      0.00000000	    -13.25361685	    -11.98710847	     -4.36562606	     53.14395270	     90.00000001	      0.00000000	      0.00000000
      3.61000000	      0.94429484	     -5.36577876	     -9.61964114	     -0.71650908	      0.93683407	      0.18740049	     20.11421298	     -5.35566797	    -11.94857231	     37.02104917	      2.95874482	      0.64613920	      6.28746430	      6.27191797	     -7.51978501	      8.90815061	     -6.29771896	    -24.88474037	     31.95612979	     -1.95268837	      0.55773968	     16.65394892	     -7.51218503	     -7.51978501	    -20.00977330	      3.29082847	     -2.04632819	     11.32042375	    -17.52932602	     17.62055217	     51.97842035	     90.00000001	      0.00000000	      0.00000000	    -13.07080168	    -12.03671956	     -4.21972551	     53.10190192	     90.00000001	      0.00000000	      0.00000000
      3.62000000	      0.96478960	     -5.11731225	     -9.36263413	     -0.71541836	      0.93622556	      0.18844392	     20.47927496	     -5.47987963	    -12.26475183	     36.04059239	      3.06430807	      0.62902700	      6.30639768	      6.51832211	     -7.51964668	      8.94622756	     -6.10951464	    -24.76988027	     32.07647706	     -1.93516995	      0.55984014	     16.72491781	     -7.50466787	     -7.51964668	    -19.89256565	      3.03248500	     -2.08981611	     11.00585634	    -17.38386251	     17.66176216	     51.92129332	     90.00000001	      0.00000000	      0.00000000	    -12.92255859	    -12.10793598	     -4.18743864	     53.13987235	     90.00000001	      0.00000000	      0.00000000
      3.63000000	      0.96472799	     -4.95622811	     -9.00163778	     -0.71426174	      0.93568230	      0.18936476	     20.72929856	     -5.48359556	    -12.53487325	     34.94190994	      3.17752277	      0.60985138	      6.20857245	      6.97512303	     -7.51949869	      9.03351671	     -5.96163612	    -24.46629270	     32.22049621	     -2.00392639	      0.56235375	     16.82092152	     -7.50956788	     -7.51949869	    -19.78338930	      2.91953289	     -2.20597314	     10.66471182	    -17.27569960	     17.67403743	     51.82187703	     90.00000001	      0.00000000	      0.00000000	    -12.74317720	    -12.16346052	     -4.11421111	     53.14111492	     90.00000001	      0.00000000	      0.00000000
      3.64000000	      1.09484681	     -4.94154395	     -8.47769089	     -0.71286248	      0.93536130	      0.19021447	     20.75920688	     -5.43792930	    -14.24059506	     33.92382961	      2.57155288	      0.59208252	      6.35322778	     11.17899384	     -7.51837910	      8.90733949	     -5.89909714	    -23.19775830	     32.33207786	     -1.64580323	      0.56430121	     16.69055432	     -8.77859173	     -7.51837910	    -19.79887485	      3.01388748	     -2.32546385	     10.44381578	    -16.91768018	     16.96448870	     51.31635626	     90.00000001	      0.00000000	      0.00000000	    -12.23056434	    -12.44934702	     -3.01596106	     52.34993905	     90.00000001	      0.00000000	      0.00000000
      3.65000000	      1.14090571	     -4.68516524	     -8.14312040	     -0.71148460	      0.93475199	      0.19122330	     21.03007107	     -5.57140158	    -14.49127265	     33.29399523	      2.71321451	      0.58108984	      6.29849855	     11.22995837	     -7.51826349	      8.87176072	     -5.74894059	    -23.15903462	     32.42954717	     -1.57584137	      0.56600237	     16.74426364	     -8.69416995	     -7.51826349	    -19.69039664	      2.79030834	     -2.43340844	     10.11159997	    -16.80211274	     16.99984382	     51.26361414	     90.00000001	      0.00000000	      0.00000000	    -12.08182648	    -12.52392335	     -3.00672481	     52.41972623	     90.00000001	      0.00000000	      0.00000000
      3.66000000	      1.26605908	     -4.64076336	     -7.68601355	     -0.70998581	      0.93446320	      0.19220921	     20.96244221	     -5.45736058	    -15.19698065	     32.35650992	      2.67132689	      0.56472763	      5.56867017	     12.16174377	     -7.51789390	      8.73300159	     -5.71302585	    -22.44188960	     32.53727097	     -1.44848087	      0.56788251	     17.01970313	     -8.69450892	     -7.51789390	    -19.71353098	      2.82324030	     -2.55088139	      9.87265377	    -16.62175337	     16.82948929	     51.02889352	     90.00000001	      0.00000000	      0.00000000	    -11.83912847	    -12.63571698	     -2.67440945	     52.10833074	     90.00000001	      0.00000000	      0.00000000
      3.67000000	      1.31327576	     -4.34693439	     -7.28254023	     -0.70847869	      0.93385318	      0.19310404	     21.18703134	     -5.63477537	    -15.51895015	     31.99242273	      2.74843284	      0.55837311	      5.57850376	     12.19283754	     -7.51777429	      8.69784419	     -5.51075374	    -22.43837007	     32.59829767	     -1.43048064	      0.56894762	     17.05001538	     -8.61356165	     -7.51777429	    -19.62473489	      2.60534623	     -2.72129690	      9.55081698	    -16.53296466	     16.83584965	     50.94719274	     90.00000001	      0.00000000	      0.00000000	    -11.57769097	    -12.65248427	     -2.61502731	     52.16593100	     90.00000001	      0.00000000	      0.00000000
      3.68000000	      1.39152275	     -4.06821157	     -6.84818967	     -0.70674553	      0.93332338	      0.19399210	     21.27526770	     -5.81772810	    -16.03106263	     31.62203394	      2.79998464	      0.55190861	      5.47138740	     12.27795016	     -7.51764801	      8.60747068	     -5.24321705	    -22.28293635	     32.64727876	     -1.50572201	      0.56980251	     17.12847836	     -8.51603008	     -7.51764801	    -19.54517580	      2.41051013	     -2.84381416	      9.21367978	    -16.42281314	     16.82465819	     50.81503972	     90.00000001	      0.00000000	      0.00000000	    -11.34887276	    -12.70168449	     -2.51752149	     52.10749009	     90.00000001	      0.00000000	      0.00000000
      3.69000000	      1.63869958	     -3.82533759	     -6.30480089	     -0.70475502	      0.93305204	      0.19476363	     21.21380980	     -6.09572540	    -17.73962300	     31.57643316	      2.29848699	      0.55111272	      5.36735921	     14.47337830	     -7.51659582	      8.25793729	     -4.97214541	    -21.79344068	     32.56598126	     -1.43118644	      0.56838360	     17.29903873	     -8.44028904	     -7.51659582	    -19.62609723	      2.27868068	     -2.99703819	      8.98249323	    -16.01403157	     15.85262083	     50.20158626	     90.00000001	      0.00000000	      0.00000000	    -10.67194335	    -13.04294273	     -1.15559418	     51.03308365	     90.00000001	      0.00000000	      0.00000000
      3.70000000	      1.79199572	     -3.52984026	     -5.85655862	     -0.70277793	      0.93260873	      0.19560839	     21.19883612	     -6.31389415	    -18.35664538	     31.54587247	      2.25291653	      0.55057934	      5.25931560	     14.29614372	     -7.51641048	      8.02938800	     -4.69651303	    -21.66161204	     32.54527780	     -1.47103700	      0.56802225	     17.39659717	     -8.29448721	     -7.51641048	    -19.62090759	      2.08140005	     -3.15701730	      8.69119250	    -15.93227806	     15.80470159	     50.09689925	     90.00000001	      0.00000000	      0.00000000	    -10.43037091	    -13.07171220	     -1.04084349	     51.00935256	     90.00000001	      0.00000000	      0.00000000
      3.71000000	      1.99049694	     -3.21755038	     -5.40481486	     -0.70064456	      0.93220307	      0.19642494	     21.13357386	     -6.56429870	    -19.11192771	     31.68377859	      2.10557787	      0.55298626	      5.17187767	     14.14869429	     -7.51616882	      7.71028088	     -4.41064983	    -21.52740254	     32.48615243	     -1.46154443	      0.56699032	     17.53614316	     -8.05179205	     -7.51616882	    -19.65607376	      1.88001424	     -3.32056636	      8.43716692	    -15.79733166	     15.69361602	     49.92441648	     90.00000001	      0.00000000	      0.00000000	    -10.11332953	    -13.10734248	     -0.79587656	     50.77241109	     90.00000001	      0.00000000	      0.00000000
      3.72000000	      2.08343064	     -2.92761217	     -5.00878527	     -0.69846430	      0.93169122	      0.19732578	     21.11138096	     -6.67625363	    -19.37081190	     31.74837414	      2.04659765	      0.55411366	      5.19724571	     14.02694401	     -7.51610752	      7.53224272	     -4.21196366	    -21.52992710	     32.53672653	     -1.45391037	      0.56787301	     17.57019473	     -7.96926913	     -7.51610752	    -19.58293042	      1.70359059	     -3.47334227	      8.14245590	    -15.72635170	     15.70151624	     49.81558042	     90.00000001	      0.00000000	      0.00000000	     -9.89066583	    -13.05522245	     -0.72163459	     50.77168657	     90.00000001	      0.00000000	      0.00000000
      3.73000000	      2.39510458	     -2.54143718	     -4.52264896	     -0.69594674	      0.93138021	      0.19806569	     20.90459488	     -7.09719911	    -20.52400801	     32.21357094	      1.72799387	      0.56223288	      5.35828474	     13.70553963	     -7.51577114	      7.03121628	     -3.78206282	    -21.38227866	     32.35526199	     -1.54394297	      0.56470585	     17.83176375	     -7.40696019	     -7.51577114	    -19.69422854	      1.43695342	     -3.63166444	      7.93763738	    -15.56016922	     15.40625129	     49.50433686	     90.00000001	      0.00000000	      0.00000000	     -9.37978544	    -13.15931448	     -0.18787944	     50.09927052	     90.00000001	      0.00000000	      0.00000000
      3.74000000	      2.60224621	     -2.20238499	     -4.08681222	     -0.69339483	      0.93093236	      0.19878336	     20.74606148	     -7.36876913	    -21.16462286	     32.58986546	      1.51611411	      0.56880045	      5.60108000	     13.33857763	     -7.51561008	      6.69377934	     -3.45005183	    -21.40859343	     32.33278051	     -1.67813971	      0.56431348	     17.96646085	     -7.16680223	     -7.51561008	    -19.70977544	      1.24865745	     -3.72539890	      7.65396407	    -15.53345494	     15.28260142	     49.31005269	     90.00000001	      0.00000000	      0.00000000	     -9.01729347	    -13.12242422	      0.05450110	     49.93560536	     90.00000001	      0.00000000	      0.00000000
      3.75000000	      2.82245957	     -1.86752684	     -3.68696969	     -0.69070987	      0.93049159	      0.19960736	     20.56539120	     -7.58850617	    -21.70805367	     33.00414189	      1.21868914	      0.57603094	      5.94190885	     12.99290547	     -7.51477356	      6.32356379	     -3.17016144	    -21.66260962	     32.30497846	     -1.87615119	      0.56382824	     18.37321844	     -6.11209421	     -7.51477356	    -19.72785767	      1.06125359	     -3.76412874	      7.35644043	    -15.31275700	     14.56399960	     48.99590380	     90.00000001	      0.00000000	      0.00000000	     -8.46948910	    -13.30031814	      1.13465100	     49.17734050	     90.00000001	      0.00000000	      0.00000000
